<?xml version="1.0" encoding="utf-8"?><svg fill="none" viewBox="0 0 280 200" xmlns="http://www.w3.org/2000/svg"><defs /><g transform="matrix(1.062,0,0,1.289,198.251,153.22)" id="Ombre"><g id="Ellipse 1" transform="matrix(1,0,0,1,-52.446,2.907)"><ellipse ry="4.0885" rx="37.9475" cy="0" cx="0" fill="#9999c2" fill-opacity="1" /></g></g><g transform="matrix(0.689,0,0,0.344,166.547,152.16)" id="Queue Ombre"><g id="Shape 1"><path stroke-linejoin="miter" stroke-linecap="round" stroke-width="15" stroke-opacity="1" stroke="#9999c2" d="M7.638,18.504C7.638,18.504,19.787,29.782,27.323,11.811C32.441,-0.394,12.756,-25.196,23.78,-35.039C33.542,-43.755,56.85,-35.04,46.614,-14.961" /></g></g><g transform="matrix(0.861,0,0,0.812,164.778,130.315)" id="Queue"><g id="Shape 1"><path stroke-linejoin="miter" stroke-linecap="round" stroke-width="13" stroke-opacity="1" stroke="#333a4e" d="M7.638,18.504C7.638,18.504,19.787,29.782,27.323,11.811C32.441,-0.394,12.756,-25.196,23.78,-35.039C33.542,-43.755,56.85,-35.04,46.614,-14.961" /></g></g><g id="Oreille Gauche Outlines"><g transform="translate(156.589,69.788)"><g transform="rotate(0)"><animateTransform repeatCount="indefinite" type="rotate" attributeName="transform" dur="0.28s" begin="0.16s" calcMode="spline" values="0; 16; 0" keyTimes="0; 0.429; 1" keySplines="0.333 0 0.667 1; 0.333 0 0.667 1" fill="freeze" /><g transform="scale(1,1) translate(-7.856,-17.275)"><g id="Group 1" transform="matrix(1,0,0,1,7.856,17.275)"><path fill="#212432" fill-opacity="1" d="M6.19,-12.905C6,-15.952,2.151,-17.025,0.681,-14.349L-7.607,-4.578L5.423,17.025C5.423,17.025,7.607,9.782,6.19,-12.905Z" /></g></g></g></g></g><g id="Oreillle Droite Outlines"><g transform="translate(132.432,63.714)"><g transform="rotate(0)"><animateTransform repeatCount="indefinite" type="rotate" attributeName="transform" dur="0.28s" begin="0.16s" calcMode="spline" values="0; -16; 0" keyTimes="0; 0.429; 1" keySplines="0.333 0 0.667 1; 0.333 0 0.667 1" fill="freeze" /><g transform="scale(1,1) translate(-7.207,-11.228)"><g id="Group 1" transform="matrix(1,0,0,1,7.207,11.228)"><path fill="#212432" fill-opacity="1" d="M6.957,-2.142L1.453,-8.288C0.011,-10.978,-4.07,-9.953,-4.07,-6.9L-6.957,10.978L6.957,-2.142Z" /></g></g></g></g></g><g transform="matrix(1,0,0,1,111.138,85.053)" id="Arrière Train Outlines"><g id="Group 1" transform="matrix(1,0,0,1,34.667,38.551)"><path fill="#333a4e" fill-opacity="1" d="M30.133,34.363C32.884,27.219,34.418,18.992,34.339,10.247C34.096,-16.582,18.458,-38.301,-0.396,-38.027C-19.218,-37.753,-34.417,-15.957,-34.417,10.891C-34.417,19.411,-32.886,27.422,-30.195,34.398C-29.26,36.821,-27.453,38.301,-25.51,38.301L25.434,38.301C27.387,38.301,29.196,36.8,30.133,34.363Z" /></g></g><g transform="matrix(1,0,0,1,117.347,59.809)" id="Corps Outlines"><g id="Group 1" transform="matrix(1,0,0,1,22.961,52.658)"><path fill="#333a4e" fill-opacity="1" d="M0.001,49.471L0.001,49.471C-12.49,49.471,-22.711,39.251,-22.711,26.76L-22.711,-29.697C-22.711,-42.188,-12.49,-52.408,0.001,-52.408C12.492,-52.408,22.711,-42.188,22.711,-29.697L22.711,34.865C22.711,45.659,12.952,37.892,12.952,42.408C12.952,52.408,3.958,48.84,0.001,49.471Z" /></g></g><g transform="matrix(1,0,0,1,119.126,153.507)" id="Patte Droite Outlines"><g id="Group 1" transform="matrix(1,0,0,1,6.144,4.34)"><path fill="#333a4e" fill-opacity="1" d="M3.748,4.027C5.058,3.187,5.894,1.916,5.894,0.492C5.894,-2.038,3.255,-4.09,0,-4.09C-3.255,-4.09,-5.894,-2.038,-5.894,0.492C-5.894,1.757,-4.979,3.261,-3.912,4.09L3.748,4.027Z" /></g></g><g transform="matrix(1,0,0,1,149.534,142.169)" id="Ventre Blanc Outlines"><g id="Group 1" transform="matrix(1,0,0,1,4.269,9.999)"><path fill="#bac1d8" fill-opacity="1" d="M-3.946,9.749C-3.946,9.749,-0.511,7.996,-2.119,4.342C-2.661,3.017,-4.019,2.515,-4.019,2.515L-1.48,-9.227C-1.376,-9.707,-0.707,-9.749,-0.553,-9.282C0.246,-6.868,1.858,-2.42,3.824,0.746C4.019,1.06,3.822,1.46,3.452,1.477C2.316,1.529,0.408,1.89,0,3.685C-0.408,5.478,0.132,9.156,2.032,9.741L-3.946,9.749Z" /></g></g><g transform="matrix(1,0,0,1,122.367,80.9)" id="Collier Blanc Outlines"><g id="Group 1" transform="matrix(1,0,0,1,11.608,40.651)"><path fill="#d9deed" fill-opacity="1" d="M10.421,-10.549C11.062,-12.101,11.357,-13.777,11.113,-15.439C10.22,-21.536,7.337,-35.722,-0.361,-37.775C-10.209,-40.401,-11.358,-23.988,-9.717,-12.991C-8.076,-1.994,-5.284,-7.738,-4.135,10.808C-2.986,29.355,-2.379,36.266,-3.189,38.32C-3.666,39.53,-4.956,40.352,-4.956,40.352L8.84,40.401C8.84,40.401,6.204,38.383,6.04,33.459C5.886,28.843,5.589,1.145,10.421,-10.549Z" /></g></g><g transform="matrix(1,0,0,1,133.364,67.34)" id="Museau Outlines"><g id="Group 1" transform="matrix(1,0,0,1,4.076,1.879)"><path fill="#020100" fill-opacity="1" d="M1.084,-0.346C-1.078,-1.629,-3.826,-0.507,-2.139,0.561C-0.451,1.629,3.826,1.28,1.084,-0.346Z" /></g></g></svg>